<?xml version="1.0" standalone="no"?>
<!DOCTYPE svg PUBLIC "-//W3C//DTD SVG 20010904//EN"
 "http://www.w3.org/TR/2001/REC-SVG-20010904/DTD/svg10.dtd">
<svg version="1.0" xmlns="http://www.w3.org/2000/svg"
 width="310.000000pt" height="310.000000pt" viewBox="0 0 310.000000 310.000000"
 preserveAspectRatio="xMidYMid meet">
<metadata>
Created by potrace 1.11, written by Peter Selinger 2001-2013
</metadata>
<g transform="translate(0.000000,310.000000) scale(0.100000,-0.100000)"
fill="#000000" stroke="none">
<path d="M892 2964 c-46 -24 -72 -61 -132 -189 -28 -60 -66 -127 -84 -150 -45
-55 -56 -78 -50 -106 10 -47 4 -108 -16 -171 -36 -105 -95 -221 -132 -258 -50
-50 -58 -70 -56 -146 1 -107 -63 -290 -144 -408 -38 -55 -42 -66 -40 -114 5
-94 -69 -287 -166 -435 -51 -77 -51 -79 -45 -140 3 -34 0 -89 -7 -122 -7 -33
-14 -89 -16 -125 -9 -188 155 -396 363 -460 61 -19 98 -20 971 -20 809 0 914
2 962 16 103 30 205 116 249 208 11 23 52 147 91 276 88 288 192 633 230 760
16 52 48 156 70 230 23 74 48 155 55 180 7 25 32 106 55 180 54 171 60 247 23
321 -25 48 -90 109 -119 109 -7 0 -12 -13 -12 -33 0 -31 -20 -103 -127 -452
-20 -66 -66 -217 -102 -335 -36 -118 -99 -325 -140 -460 -41 -135 -87 -288
-103 -340 -93 -311 -103 -341 -132 -369 -16 -15 -46 -33 -68 -40 -29 -8 -278
-11 -942 -11 -497 1 -918 3 -936 5 -87 12 -165 74 -178 142 -8 40 2 63 35 79
15 8 277 11 874 12 468 0 868 3 888 6 20 2 54 12 75 21 111 46 126 84 374 915
16 52 99 326 184 609 86 282 157 534 159 560 8 116 -60 219 -172 258 -28 10
-205 12 -806 9 -424 -2 -774 -4 -780 -6 -5 -1 -35 1 -65 4 -41 5 -63 2 -88
-10z m1452 -467 c21 -8 21 -51 -3 -119 -25 -73 -41 -96 -71 -106 -32 -10
-1171 -9 -1187 1 -20 12 -15 55 15 132 21 54 34 73 57 85 26 13 112 15 601 14
314 0 579 -4 588 -7z m-157 -475 c24 -4 24 -44 -2 -122 -16 -49 -35 -86 -48
-95 -18 -13 -104 -15 -614 -15 -661 0 -620 -5 -601 69 28 107 56 155 93 163
18 4 1145 3 1172 0z"/>
</g>
</svg>
